<svg width="300" height="200" viewBox="0 0 300 200" xmlns="http://www.w3.org/2000/svg">
  <defs>
    <radialGradient id="sunGlow" cx="50%" cy="100%">
      <stop offset="0%" style="stop-color:#FFA500;stop-opacity:0.3" />
      <stop offset="100%" style="stop-color:#FFA500;stop-opacity:0" />
    </radialGradient>
    <style>
      .cursor {
        animation: blink 1s infinite;
      }
      @keyframes blink {
        0%, 50% { opacity: 1; }
        51%, 100% { opacity: 0; }
      }
    </style>
  </defs>
  
  <!-- Terminal Monitor -->
  <g transform="translate(150,100)">
    <!-- Monitor bezel -->
    <rect x="-120" y="-60" width="240" height="100" rx="8" fill="#2a2a2a" stroke="#555" stroke-width="2"/>
    
    <!-- Screen -->
    <rect x="-110" y="-50" width="220" height="70" rx="4" fill="#000"/>
    
    <!-- Sun emerging from top of screen -->
    <g transform="translate(0,-50)">
      <!-- Sun rays -->
      <g fill="#FFA500">
        <rect x="-2" y="-25" width="4" height="12" rx="2" transform="rotate(-90)"/>
        <rect x="-2" y="-25" width="4" height="12" rx="2" transform="rotate(-70)"/>
        <rect x="-2" y="-25" width="4" height="12" rx="2" transform="rotate(-50)"/>
        <rect x="-2" y="-25" width="4" height="12" rx="2" transform="rotate(-30)"/>
        <rect x="-2" y="-25" width="4" height="12" rx="2" transform="rotate(-10)"/>
        <rect x="-2" y="-25" width="4" height="12" rx="2" transform="rotate(10)"/>
        <rect x="-2" y="-25" width="4" height="12" rx="2" transform="rotate(30)"/>
        <rect x="-2" y="-25" width="4" height="12" rx="2" transform="rotate(50)"/>
        <rect x="-2" y="-25" width="4" height="12" rx="2" transform="rotate(70)"/>
        <rect x="-2" y="-25" width="4" height="12" rx="2" transform="rotate(90)"/>
      </g>
      
      <!-- Sun semicircle -->
      <path d="M -18 0 A 18 18 0 0 1 18 0 Z" fill="#FFA500"/>
      
      <!-- Sun glow effect -->
      <ellipse cx="0" cy="0" rx="25" ry="15" fill="url(#sunGlow)"/>
    </g>
    
    <!-- Terminal content on screen -->
    <g>
      <!-- Terminal lines -->
      <rect x="-100" y="-30" width="60" height="2" fill="#00FF00" opacity="0.8"/>
      <rect x="-100" y="-25" width="80" height="2" fill="#00FF00" opacity="0.8"/>
      <rect x="-100" y="-20" width="45" height="2" fill="#00FF00" opacity="0.8"/>
      <rect x="-100" y="-15" width="70" height="2" fill="#00FF00" opacity="0.8"/>
      <rect x="-100" y="-10" width="35" height="2" fill="#00FF00" opacity="0.8"/>
      <rect x="-100" y="-5" width="55" height="2" fill="#00FF00" opacity="0.8"/>
      <rect x="-100" y="0" width="25" height="2" fill="#00FF00" opacity="0.8"/>
      
      <!-- Current line with prompt -->
      <rect x="-100" y="10" width="20" height="2" fill="#00FF00"/>
      <text x="-78" y="13" fill="#00FF00" font-size="8" font-family="monospace">~$</text>
      
      <!-- Blinking cursor -->
      <rect x="-65" y="8" width="3" height="8" fill="#00FF00" class="cursor"/>
    </g>
    
    <!-- Monitor stand -->
    <rect x="-15" y="40" width="30" height="20" rx="4" fill="#444"/>
    <ellipse cx="0" cy="60" rx="50" ry="8" fill="#333"/>
  </g>
</svg>